<?xml version="1.0" encoding="iso-8859-1"?>
<!-- Generator: Adobe Illustrator 21.0.0, SVG Export Plug-In . SVG Version: 6.00 Build 0)  -->
<svg xmlns="http://www.w3.org/2000/svg" xmlns:xlink="http://www.w3.org/1999/xlink" version="1.1" id="Capa_1" x="0px" y="0px" viewBox="0 0 512 512" style="enable-background:new 0 0 512 512;" xml:space="preserve" width="512" height="512">
<g>
	<g>
		<path style="fill:#DEECF1;" d="M507.5,422.601L420,335.099l42.599-42.299c3.6-3.6,5.101-9.001,3.9-14.101    c-1.199-5.099-4.799-9-9.901-10.8L202.2,182.999c-5.4-1.8-11.4-0.3-15.3,3.9c-4.199,3.9-5.7,9.901-3.9,15.3L267.9,456.599    c1.8,5.101,5.7,8.701,10.8,9.901c5.101,1.199,10.501-0.3,14.101-3.9L335.099,420l87.5,87.5c6,6,15.601,6,21.301,0l63.6-63.6    C513.5,438.2,513.5,428.601,507.5,422.601z"/>
	</g>
	<g>
		<path style="fill:#FFDA2D;" d="M195,120c-8.291,0-15-6.709-15-15V15c0-8.291,6.709-15,15-15s15,6.709,15,15v90    C210,113.291,203.291,120,195,120z"/>
	</g>
	<g>
		<path style="fill:#FFDA2D;" d="M141.899,141.899c-5.7,6-15.3,6-20.999,0l-63.9-63.6c-5.7-5.7-5.7-15.3,0-21.301    c5.999-5.7,15.599-5.7,21.299,0l63.6,63.9C147.9,126.599,147.9,136.199,141.899,141.899z"/>
	</g>
	<g>
		<path style="fill:#FDBF00;" d="M57.114,332.886c-5.859-5.859-5.859-15.352,0-21.211l63.647-63.647    c5.859-5.859,15.352-5.859,21.211,0s5.859,15.352,0,21.211l-63.647,63.647C72.466,338.745,62.974,338.745,57.114,332.886z"/>
	</g>
	<g>
		<path style="fill:#FFDA2D;" d="M248.027,141.973c-5.859-5.859-5.859-15.352,0-21.211l63.647-63.647    c5.859-5.859,15.352-5.859,21.211,0s5.859,15.352,0,21.211l-63.647,63.647C263.379,147.832,253.887,147.832,248.027,141.973z"/>
	</g>
	<g>
		<path style="fill:#FDBF00;" d="M105,210H15c-8.291,0-15-6.709-15-15s6.709-15,15-15h90c8.291,0,15,6.709,15,15    S113.291,210,105,210z"/>
	</g>
	<path style="fill:#FDBF00;" d="M57.001,56.999l84.899,84.901c-5.7,6-15.3,6-20.999,0l-63.9-63.6   C51.301,72.599,51.301,62.999,57.001,56.999z"/>
	<path style="fill:#C5D3DD;" d="M475.7,475.7l-31.8,31.8c-5.7,6-15.3,6-21.301,0l-87.5-87.5L292.8,462.599   c-3.6,3.6-9,5.099-14.101,3.9c-5.099-1.199-9-4.799-10.8-9.901L182.999,202.2c-1.8-5.4-0.298-11.4,3.9-15.3L475.7,475.7z"/>
</g>















</svg>
